<svg width="26" height="29" viewBox="0 0 26 29" fill="none" xmlns="http://www.w3.org/2000/svg">
<path fill-rule="evenodd" clip-rule="evenodd" d="M5.25 15.0298C5.25 12.3293 7.61914 10.25 10.4 10.25C11.8335 10.25 13.0948 10.9221 14 11.7918C14.9052 10.9221 16.1665 10.25 17.6 10.25C20.3809 10.25 22.75 12.3293 22.75 15.0298C22.75 16.8797 21.9611 18.5064 20.8682 19.8815C19.7771 21.2543 18.35 22.4193 16.9835 23.366C16.4615 23.7276 15.9335 24.0611 15.4503 24.3072C14.9965 24.5383 14.4747 24.75 14 24.75C13.5253 24.75 13.0035 24.5383 12.5497 24.3072C12.0665 24.0611 11.5385 23.7276 11.0165 23.366C9.65005 22.4193 8.22287 21.2543 7.13182 19.8815C6.03888 18.5064 5.25 16.8797 5.25 15.0298ZM10.4 11.75C8.32075 11.75 6.75 13.2791 6.75 15.0298C6.75 16.4333 7.34579 17.74 8.30609 18.9482C9.26828 20.1588 10.5629 21.2269 11.8707 22.133C12.3656 22.4758 12.8317 22.7675 13.2305 22.9706C13.6586 23.1886 13.9067 23.25 14 23.25C14.0933 23.25 14.3414 23.1886 14.7695 22.9706C15.1683 22.7675 15.6344 22.4758 16.1293 22.133C17.4371 21.2269 18.7317 20.1588 19.6939 18.9482C20.6542 17.74 21.25 16.4333 21.25 15.0298C21.25 13.2791 19.6792 11.75 17.6 11.75C16.4058 11.75 15.2908 12.4634 14.5946 13.3689C14.4526 13.5536 14.2329 13.6618 14 13.6618C13.7671 13.6618 13.5474 13.5536 13.4054 13.3689C12.7092 12.4634 11.5942 11.75 10.4 11.75Z" fill="white"/>
<path fill-rule="evenodd" clip-rule="evenodd" d="M3.25 10.0298C3.25 7.3293 5.61914 5.25 8.4 5.25C9.83347 5.25 11.0948 5.92214 12 6.79183C12.9052 5.92214 14.1665 5.25 15.6 5.25C18.3809 5.25 20.75 7.3293 20.75 10.0298C20.75 11.8797 19.9611 13.5064 18.8682 14.8815C17.7771 16.2543 16.35 17.4193 14.9835 18.366C14.4615 18.7276 13.9335 19.0611 13.4503 19.3072C12.9965 19.5383 12.4747 19.75 12 19.75C11.5253 19.75 11.0035 19.5383 10.5497 19.3072C10.0665 19.0611 9.53846 18.7276 9.01653 18.366C7.65005 17.4193 6.22287 16.2543 5.13182 14.8815C4.03888 13.5064 3.25 11.8797 3.25 10.0298ZM8.4 6.75C6.32075 6.75 4.75 8.2791 4.75 10.0298C4.75 11.4333 5.34579 12.74 6.30609 13.9482C7.26828 15.1588 8.56292 16.2269 9.87074 17.133C10.3656 17.4758 10.8317 17.7675 11.2305 17.9706C11.6586 18.1886 11.9067 18.25 12 18.25C12.0933 18.25 12.3414 18.1886 12.7695 17.9706C13.1683 17.7675 13.6344 17.4758 14.1293 17.133C15.4371 16.2269 16.7317 15.1588 17.6939 13.9482C18.6542 12.74 19.25 11.4333 19.25 10.0298C19.25 8.2791 17.6792 6.75 15.6 6.75C14.4058 6.75 13.2908 7.46342 12.5946 8.36892C12.4526 8.55356 12.2329 8.66176 12 8.66176C11.7671 8.66176 11.5474 8.55356 11.4054 8.36892C10.7092 7.46342 9.59415 6.75 8.4 6.75Z" fill="black"/>
</svg>
