<svg width="24" height="24" viewBox="0 0 24 24" fill="none" xmlns="http://www.w3.org/2000/svg">
<path fill-rule="evenodd" clip-rule="evenodd" d="M1 8.59282C1 4.868 3.97835 2 7.47429 2C9.27637 2 10.8621 2.92709 12 4.12667C13.1379 2.92709 14.7236 2 16.5257 2C20.0216 2 23 4.868 23 8.59282C23 11.1444 22.0083 13.3882 20.6343 15.2849C19.2627 17.1783 17.4685 18.7852 15.7506 20.091C15.0945 20.5897 14.4307 21.0498 13.8232 21.3893C13.2528 21.708 12.5968 22 12 22C11.4032 22 10.7472 21.708 10.1768 21.3893C9.56929 21.0498 8.9055 20.5897 8.24935 20.091C6.53149 18.7852 4.73733 17.1783 3.36572 15.2849C1.99174 13.3882 1 11.1444 1 8.59282ZM7.47429 4.06897C4.86037 4.06897 2.88571 6.17807 2.88571 8.59282C2.88571 10.5287 3.6347 12.331 4.84194 13.9975C6.05156 15.6673 7.6791 17.1406 9.32322 18.3903C9.94535 18.8632 10.5313 19.2655 11.0326 19.5456C11.5709 19.8464 11.8827 19.931 12 19.931C12.1173 19.931 12.4291 19.8464 12.9674 19.5456C13.4687 19.2655 14.0547 18.8632 14.6768 18.3903C16.3209 17.1406 17.9484 15.6673 19.1581 13.9975C20.3653 12.331 21.1143 10.5287 21.1143 8.59282C21.1143 6.17807 19.1396 4.06897 16.5257 4.06897C15.0245 4.06897 13.6227 5.053 12.7475 6.30196C12.569 6.55663 12.2928 6.70588 12 6.70588C11.7072 6.70588 11.431 6.55663 11.2525 6.30196C10.3773 5.053 8.9755 4.06897 7.47429 4.06897Z" fill="white"/>
</svg>
