<svg width="24" height="24" viewBox="0 0 24 24" fill="none" xmlns="http://www.w3.org/2000/svg">
<path fill-rule="evenodd" clip-rule="evenodd" d="M6.61021 6.59303V6.45536C6.61021 3.96571 8.2755 1.79191 10.6577 1.17188C11.5383 0.942706 12.4618 0.942706 13.3423 1.17188C15.7245 1.79191 17.3898 3.96571 17.3898 6.45536V6.59303H19.0931C19.7413 6.59303 20.2915 7.07423 20.3855 7.72342L20.6336 9.43749C21.1221 12.8123 21.1221 16.2412 20.6336 19.616C20.3977 21.2457 19.0993 22.5057 17.4806 22.6756L16.767 22.7505C13.5975 23.0832 10.4025 23.0832 7.233 22.7505L6.51943 22.6756C4.90074 22.5057 3.60232 21.2457 3.3664 19.616C2.87787 16.2412 2.87787 12.8123 3.3664 9.43749L3.61453 7.72341C3.7085 7.07423 4.25866 6.59303 4.90689 6.59303H6.61021ZM11.0816 2.84035C11.6841 2.68354 12.3159 2.68354 12.9184 2.84035C14.5483 3.26458 15.6878 4.75192 15.6878 6.45536V6.59303H8.31225V6.45536C8.31225 4.75191 9.45165 3.26458 11.0816 2.84035ZM6.61021 8.31578V10.8999C6.61021 11.3756 6.99122 11.7613 7.46123 11.7613C7.93123 11.7613 8.31225 11.3756 8.31225 10.8999V8.31578H15.6878V10.8999C15.6878 11.3756 16.0688 11.7613 16.5388 11.7613C17.0088 11.7613 17.3898 11.3756 17.3898 10.8999V8.31578H18.751L18.9495 9.68724C19.4141 12.8964 19.4141 16.157 18.9495 19.3662C18.8265 20.2162 18.1493 20.8734 17.305 20.962L16.5914 21.0369C13.5387 21.3574 10.4613 21.3574 7.40857 21.0369L6.695 20.962C5.85073 20.8734 5.17351 20.2163 5.05046 19.3662C4.5859 16.157 4.5859 12.8964 5.05046 9.68724L5.24899 8.31578H6.61021Z" fill="white"/>
</svg>
